<svg width="800px" height="800px" viewBox="-2 0 32 32" xmlns="http://www.w3.org/2000/svg">
  <path fill="#000" fill-rule="evenodd"
    d="M24,4
       L21,4
       L21,6
       L24,6
       C25.104,6 26,6.896 26,8
       L26,28
       C26,29.104 25.104,30 24,30
       L4,30
       C2.896,30 2,29.104 2,28
       L2,8
       C2,6.896 2.896,6 4,6
       L7,6
       L7,4
       L4,4
       C1.791,4 0,5.791 0,8
       L0,28
       C0,30.209 1.791,32 4,32
       L24,32
       C26.209,32 28,30.209 28,28
       L28,8
       C28,5.791 26.209,4 24,4
       Z

       M6.343,18.758
       L13.242,25.657
       C13.451,25.865 13.728,25.954 14,25.939
       C14.272,25.954 14.549,25.865 14.758,25.657
       L21.657,18.758
       C22.048,18.367 22.048,17.733 21.657,17.343
       C21.267,16.953 20.633,16.953 20.242,17.343
       L15,22.586
       L15,1
       C15,0.447 14.553,0 14,0
       C13.448,0 13,0.447 13,1
       L13,22.586
       L7.757,17.343
       C7.367,16.953 6.733,16.953 6.343,17.343
       C5.952,17.733 5.952,18.367 6.343,18.758
       L6.343,18.758
       Z" />
</svg>